<?xml version="1.0" encoding="utf-8"?>
<!-- Generator: Adobe Illustrator 19.1.0, SVG Export Plug-In . SVG Version: 6.00 Build 0)  -->
<svg version="1.1" id="Layer_1" xmlns="http://www.w3.org/2000/svg" xmlns:xlink="http://www.w3.org/1999/xlink" x="0px" y="0px"
	 viewBox="-377 261 40 39" style="enable-background:new -377 261 40 39;" xml:space="preserve">
<style type="text/css">
	.st0{fill:#152600;}
	.st1{fill:#87EC00;}
</style>
<path class="st0" d="M-376,262h38v37h-38V262z"/>
<path class="st1" d="M-377,261v39h40v-39H-377z M-375,263h36v35h-36V263z"/>
<path class="st1" d="M-365,273.7h-4.7c-0.1,0-0.2-0.1-0.2-0.2l0.3-2.3c0-0.1,0.1-0.2,0.2-0.2h11.5c0.2,0,0.2,0.1,0.2,0.2l0.2,2.3
	c0,0.2-0.1,0.2-0.2,0.2h-4.3v16.1c0,0.1-0.1,0.2-0.2,0.2h-2.5c-0.1,0-0.2-0.1-0.2-0.2v-16.1H-365z M-352.5,282.3l4.2-5.7
	c0.1-0.1,0.1-0.2,0.3-0.2h2.8c0.2,0,0.2,0.1,0.1,0.2c-0.7,0.9-3.7,4.6-4.7,5.8v0.2l5.3,7.1c0.1,0.1,0,0.2-0.1,0.2h-3.2
	c-0.2,0-0.2-0.1-0.3-0.2c-0.9-1.2-3.2-4.5-4.4-6.1v6.1c0,0.1,0,0.2-0.2,0.2h-2.6c-0.2,0-0.2-0.1-0.2-0.2v-18.5c0-0.1,0-0.2,0.2-0.2
	h2.6c0.1,0,0.2,0.1,0.2,0.2C-352.5,271.2-352.5,282.3-352.5,282.3z"/>
</svg>
